<svg xmlns="http://www.w3.org/2000/svg" version="1.1" xmlns:xlink="http://www.w3.org/1999/xlink" xmlns:svgjs="http://svgjs.com/svgjs" width="1440" height="560" preserveAspectRatio="none" viewBox="0 0 1440 560"><g mask="url(&quot;#SvgjsMask1000&quot;)" fill="none"><rect width="1440" height="560" x="0" y="0" fill="#1e3266"></rect><path d="M1536 560L0 560 L0 299.29Q48.86 276.15, 72 325.01Q125.65 258.66, 192 312.32Q250.95 299.27, 264 358.23Q268.58 290.81, 336 295.39Q390.26 229.65, 456 283.92Q540.89 248.81, 576 333.7Q622 307.69, 648 353.69Q660.57 294.25, 720 306.82Q743.09 257.9, 792 280.99Q871.52 240.51, 912 320.04Q977.26 265.31, 1032 330.57Q1049.57 276.13, 1104 293.7Q1151.52 269.22, 1176 316.74Q1246.86 267.6, 1296 338.45Q1331.69 254.14, 1416 289.83Q1485.78 239.61, 1536 309.38z" fill="#182f5d"></path><path d="M1536 560L0 560 L0 382.78Q56.33 367.11, 72 423.44Q95.49 374.93, 144 398.41Q169.02 351.44, 216 376.46Q311.28 351.74, 336 447.02Q345.13 384.14, 408 393.27Q459.29 324.56, 528 375.85Q586.52 362.37, 600 420.89Q625.11 326, 720 351.1Q792.83 303.93, 840 376.75Q895.39 360.14, 912 415.54Q944.04 327.59, 1032 359.63Q1077.47 333.1, 1104 378.56Q1177.37 331.93, 1224 405.29Q1297.29 358.58, 1344 431.87Q1349.47 365.34, 1416 370.8Q1482.76 317.56, 1536 384.32z" fill="#25467d"></path><path d="M1464 560L0 560 L0 448.11Q49.53 425.64, 72 475.17Q147.13 430.3, 192 505.43Q204.5 445.94, 264 458.44Q339.91 414.35, 384 490.26Q420.43 406.69, 504 443.11Q531.46 398.57, 576 426.03Q674.81 404.83, 696 503.64Q715.57 451.21, 768 470.78Q813.68 396.46, 888 442.15Q930.11 412.25, 960 454.36Q1028.62 402.98, 1080 471.6Q1128.99 448.59, 1152 497.58Q1218.33 443.9, 1272 510.23Q1293 459.23, 1344 480.23Q1384.91 401.14, 1464 442.06z" fill="#356cb1"></path><path d="M1488 560L0 560 L0 570.95Q58.42 509.38, 120 567.8Q188.84 516.64, 240 585.48Q253.26 526.74, 312 540Q362.51 470.51, 432 521.03Q483.23 452.26, 552 503.49Q617.13 496.62, 624 561.74Q664.69 482.43, 744 523.12Q812.98 472.1, 864 541.07Q940.24 497.31, 984 573.54Q1018.35 487.89, 1104 522.24Q1126.68 472.93, 1176 495.61Q1260.9 460.51, 1296 545.41Q1348.31 525.72, 1368 578.03Q1398.26 488.28, 1488 518.54z" fill="white"></path></g><defs><mask id="SvgjsMask1000"><rect width="1440" height="560" fill="#ffffff"></rect></mask></defs></svg>