<svg xmlns="http://www.w3.org/2000/svg" version="1.1" xmlns:xlink="http://www.w3.org/1999/xlink" xmlns:svgjs="http://svgjs.com/svgjs" width="1440" height="1000" preserveAspectRatio="none" viewBox="0 0 1440 1000"><g mask="url(&quot;#SvgjsMask1029&quot;)" fill="none"><rect width="1440" height="1000" x="0" y="0" fill="url(#SvgjsLinearGradient1030)"></rect><path d="M1464 1000L0 1000 L0 546.62Q73.15 499.77, 120 572.92Q192.3 525.22, 240 597.52Q333.23 570.75, 360 663.98Q394.59 578.57, 480 613.16Q497.22 558.38, 552 575.6Q559.01 510.62, 624 517.63Q695.58 469.21, 744 540.8Q844.48 521.28, 864 621.76Q914.19 599.95, 936 650.14Q952.76 594.9, 1008 611.67Q1057.33 589, 1080 638.33Q1083.31 569.63, 1152 572.94Q1201.03 501.98, 1272 551.01Q1364.07 523.08, 1392 615.15Q1453.72 604.88, 1464 666.6z" fill="#182f5d"></path><path d="M1512 1000L0 1000 L0 693.47Q55.37 676.84, 72 732.21Q90.98 631.19, 192 650.18Q233.59 619.77, 264 661.36Q328.01 653.37, 336 717.38Q400.28 709.66, 408 773.94Q449.79 743.74, 480 785.53Q490.49 724.02, 552 734.51Q585.31 647.82, 672 681.13Q714.33 651.46, 744 693.79Q798.11 675.9, 816 730.01Q888.49 682.5, 936 754.99Q938.26 685.25, 1008 687.51Q1053.99 613.5, 1128 659.48Q1218.53 630.01, 1248 720.55Q1313.6 666.15, 1368 731.75Q1427.92 719.67, 1440 779.59Q1484.22 751.82, 1512 796.04z" fill="#25467d"></path><path d="M1512 1000L0 1000 L0 782.98Q85.4 748.38, 120 833.78Q162.81 804.59, 192 847.4Q237.96 773.36, 312 819.31Q411.83 799.14, 432 898.97Q475.32 822.29, 552 865.61Q580.4 822.01, 624 850.42Q707.13 813.55, 744 896.68Q773.73 854.41, 816 884.14Q868.51 816.65, 936 869.17Q943.65 804.82, 1008 812.46Q1076.98 761.44, 1128 830.43Q1199.7 830.13, 1200 901.83Q1265.91 847.75, 1320 913.66Q1343.74 865.4, 1392 889.14Q1440.79 817.93, 1512 866.72z" fill="#356cb1"></path><path d="M1512 1000L0 1000 L0 990.63Q30.46 901.09, 120 931.54Q199.96 891.5, 240 971.45Q289.15 948.6, 312 997.75Q386.54 952.29, 432 1026.83Q501.83 976.65, 552 1046.48Q569.27 943.75, 672 961.03Q701.9 870.93, 792 900.84Q816.72 853.56, 864 878.27Q918.75 861.02, 936 915.78Q1024.76 884.54, 1056 973.3Q1084.31 929.61, 1128 957.92Q1135.63 893.54, 1200 901.17Q1266.68 847.85, 1320 914.52Q1396.09 870.61, 1440 946.7Q1513.13 947.84, 1512 1020.97z" fill="white"></path></g><defs><mask id="SvgjsMask1029"><rect width="1440" height="1000" fill="#ffffff"></rect></mask><linearGradient x1="7.64%" y1="-11%" x2="92.36%" y2="111%" gradientUnits="userSpaceOnUse" id="SvgjsLinearGradient1030"><stop stop-color="#0e2a47" offset="0"></stop><stop stop-color="#00459e" offset="1"></stop></linearGradient></defs></svg>