<svg xmlns="http://www.w3.org/2000/svg" version="1.1" xmlns:xlink="http://www.w3.org/1999/xlink" xmlns:svgjs="http://svgjs.com/svgjs" width="1440" height="560" preserveAspectRatio="none" viewBox="0 0 1440 560"><g mask="url(&quot;#SvgjsMask1000&quot;)" fill="none"><rect width="1440" height="560" x="0" y="0" fill="#0e2a47"></rect><path d="M 0,22 C 57.6,71.6 172.8,266.2 288,270 C 403.2,273.8 460.8,43.8 576,41 C 691.2,38.2 748.8,251.8 864,256 C 979.2,260.2 1036.8,84.4 1152,62 C 1267.2,39.6 1382.4,127.6 1440,144L1440 560L0 560z" fill="#184a7e"></path><path d="M 0,461 C 96,431 288,298.6 480,311 C 672,323.4 768,501.8 960,523 C 1152,544.2 1344,438.2 1440,417L1440 560L0 560z" fill="#2264ab"></path></g><defs><mask id="SvgjsMask1000"><rect width="1440" height="560" fill="#ffffff"></rect></mask></defs></svg>